<svg width="131" height="43" viewBox="0 0 131 43" fill="none" xmlns="http://www.w3.org/2000/svg">
<g clip-path="url(#clip0_5232_8481)">
<path d="M105.184 38.0427V17.0559H100.083V38.0427H4.54617V4.8915H8.25717V0.406738H0V42.5271H105.191V38.0427H105.184Z" fill="#FCFCFC"/>
<path d="M100.191 11.5039H105.291V15.7777H100.191V11.5039Z" fill="#FCFCFC"/>
<path d="M30.3088 11.5039H35.4099V15.7777H30.3088V11.5039Z" fill="#FCFCFC"/>
<path d="M105.184 38.0427V17.0559H100.083V38.0427H4.54617V4.8915H8.25717V0.406738H0V42.5271H105.191V38.0427H105.184Z" fill="#FCFCFC"/>
<path d="M10.5178 0.406738V0.408943H10.4728V30.7167H12.7818V30.717H28.1407V25.4343H16.2673V4.8915H125.805V38.0427H107.405V42.5262H130.351V0.406738H10.5178Z" fill="#FCFCFC"/>
<path d="M35.2764 17.0576V30.8854H30.2402V17.0576H35.2764Z" fill="#FCFCFC"/>
<path d="M48.7638 20.0428H58.7584C58.7584 21.0701 58.7153 22.0042 58.629 22.8434C58.5427 23.6827 58.3726 24.4624 58.1153 25.182C57.756 26.1926 57.2676 27.0869 56.651 27.8667C56.0343 28.6461 55.311 29.2964 54.4802 29.8195C53.6491 30.3416 52.7368 30.7403 51.7442 31.0134C50.7503 31.2876 49.7051 31.4253 48.6095 31.4253C47.102 31.4253 45.7274 31.1762 44.4856 30.6792C43.2439 30.1835 42.177 29.4854 41.2873 28.5863C40.3964 27.6872 39.7033 26.607 39.2063 25.3486C38.7094 24.0902 38.4615 22.6989 38.4615 21.1734C38.4615 19.6671 38.7047 18.2828 39.1931 17.0243C39.6815 15.7659 40.375 14.6908 41.2741 13.7999C42.1732 12.9102 43.2568 12.2158 44.5237 11.7189C45.7919 11.222 47.2046 10.9741 48.7638 10.9741C50.7837 10.9741 52.557 11.4112 54.0815 12.2842C55.6057 13.1584 56.8141 14.5113 57.7047 16.3432L52.9258 18.3224C52.4805 17.2602 51.902 16.4975 51.1909 16.0355C50.4807 15.5732 49.6714 15.3424 48.7638 15.3424C48.0096 15.3424 47.3246 15.4838 46.708 15.7662C46.0914 16.0487 45.5645 16.4512 45.1287 16.9733C44.6916 17.4967 44.3493 18.1253 44.1002 18.8616C43.8523 19.5979 43.7279 20.4204 43.7279 21.3283C43.7279 22.1509 43.8344 22.9124 44.0488 23.6153C44.2633 24.3169 44.5842 24.9253 45.0128 25.439C45.4402 25.9526 45.9721 26.3513 46.6054 26.6341C47.2387 26.9166 47.9765 27.058 48.8158 27.058C49.3115 27.058 49.7917 27.0029 50.2537 26.8904C50.716 26.7802 51.1314 26.5995 51.5001 26.3516C51.8676 26.1038 52.1719 25.7816 52.4125 25.3876C52.6518 24.9937 52.8149 24.5147 52.9 23.9497H48.7641V20.0428H48.7638Z" fill="#FCFCFC"/>
<path d="M66.9798 18.9899H74.2503V11.5146H79.2852V30.8859H74.2503V22.8958H66.9798V30.8859H61.9436V11.5146H66.9798V18.9899Z" fill="#FCFCFC"/>
<path d="M90.6935 15.7787V30.8859H85.6573V15.7787H81.5215V11.5146H94.8293V15.7787H90.6935Z" fill="#FCFCFC"/>
<path d="M117.731 15.7787V30.8859H112.695V15.7787H108.559V11.5146H121.867V15.7787H117.731Z" fill="#FCFCFC"/>
</g>
<defs>
<clipPath id="clip0_5232_8481">
<rect width="130.352" height="42.1204" fill="white" transform="translate(0 0.406738)"/>
</clipPath>
</defs>
</svg>
